# xmcd
#
# Track frame offsets: 
#        150
#        15962
#        30602
#        47270
#        62800
#        81062
#        98935
#        120097
#        136882
#        155360
#        178667
#        203347
#        219812
#        237582
#        257465
#
# Disc length: 3767 seconds
#
# Revision: 2
# Processed by: cddbd v1.5.2PL0 Copyright (c) Steve Scherf et al.
# Submitted via: ExactAudioCopy v0.99pb2
#
DISCID=ac0eb50f
DTITLE=Boyzone - Where We Belong
DYEAR=1998
DGENRE=Pop
TTITLE0=Picure Of You
TTITLE1=Baby Can I Hold You?
TTITLE2=All That I Need
TTITLE3=Must Have Been High
TTITLE4=And I
TTITLE5=That's How Love Goes
TTITLE6=Where Did You Go?
TTITLE7=I'm Learning (Part One)
TTITLE8=One Kiss At A Time
TTITLE9=While The World Is Going Crazy
TTITLE10=This Is Where I Belong
TTITLE11=Will Be Yours
TTITLE12=Good Conversation
TTITLE13=You Flew Away
TTITLE14=I'm Learning (Part Two)
EXTD=
EXTT0=
EXTT1=
EXTT2=
EXTT3=
EXTT4=
EXTT5=
EXTT6=
EXTT7=
EXTT8=
EXTT9=
EXTT10=
EXTT11=
EXTT12=
EXTT13=
EXTT14=
PLAYORDER=
